<svg t="1587115141004" class="icon" viewBox="0 0 1024 1024" version="1.1" xmlns="http://www.w3.org/2000/svg" p-id="2753" width="200" height="200"><path d="M384.670438 1023.946365L136.983868 706.26608s-12.496962-118.533417 99.063901-68.599204A179.945527 179.945527 0 0 1 323.419233 729.436413l2.306306-483.895244s66.561073-101.906558 124.486906 0l1.072701 306.363294s71.978211-100.565682 156.667923 7.026189c0 0 63.503876-109.576367 152.752567 5.363503 0 0 63.289336-126.739577 126.793212 10.995181V960.067044s-3.700817 29.981982-55.190447 63.932956zM386.869474 0A253.693694 253.693694 0 0 0 136.608422 256.965431a256.965431 256.965431 0 0 0 125.881417 221.727215v-79.379845a193.086109 193.086109 0 0 1-63.611146-143.312801 187.078986 187.078986 0 1 1 373.997066 0 193.086109 193.086109 0 0 1-61.251204 141.27467v81.257071a257.448146 257.448146 0 0 0 125.559606-221.512675A253.693694 253.693694 0 0 0 386.869474 0z m0 0" p-id="2754"></path></svg>